<svg width="835" height="835" viewBox="0 0 835 835" fill="none" xmlns="http://www.w3.org/2000/svg">
<path d="M547.969 626.25H443.594V730.625H547.969V626.25Z" fill="#003663"/>
<path d="M730.625 626.25H626.25V730.625H730.625V626.25Z" fill="#003663"/>
<path d="M547.969 443.594H443.594V547.969H547.969V443.594Z" fill="#003663"/>
<path d="M730.625 443.594H626.25V547.969H730.625V443.594Z" fill="#003663"/>
<path d="M730.625 287.031H574.062V182.656C574.062 138.297 540.141 104.375 495.781 104.375H339.219C294.859 104.375 260.938 138.297 260.938 182.656V287.031H104.375C88.7187 287.031 78.2812 297.469 78.2812 313.125C78.2812 315.734 78.2812 315.734 78.2812 318.344L127.859 634.078C130.469 660.172 153.953 678.438 180.047 678.438H391.406V626.25H180.047L135.687 339.219H730.625V287.031ZM313.125 182.656C313.125 167 323.562 156.562 339.219 156.562H495.781C511.438 156.562 521.875 167 521.875 182.656V287.031H313.125V182.656Z" fill="#003663"/>
</svg>
