<svg width="18" height="18" viewBox="0 0 18 18" fill="none" xmlns="http://www.w3.org/2000/svg">
<path d="M11.7677 8.84849L17.2422 3.37404C17.8471 2.76917 17.8471 1.78853 17.2422 1.1846L16.5124 0.454787C15.9073 -0.150272 14.9267 -0.150272 14.3228 0.454787L8.84849 5.92905L3.37404 0.453653C2.76917 -0.151218 1.78853 -0.151218 1.1846 0.453653L0.453653 1.18347C-0.151218 1.78853 -0.151218 2.76917 0.453653 3.3731L5.92905 8.84849L0.454787 14.3228C-0.150272 14.9278 -0.150272 15.9085 0.454787 16.5124L1.1846 17.2422C1.78947 17.8471 2.77012 17.8471 3.37404 17.2422L8.84849 11.7677L14.3228 17.2422C14.9278 17.8471 15.9085 17.8471 16.5124 17.2422L17.2422 16.5124C17.8471 15.9073 17.8471 14.9267 17.2422 14.3228L11.7677 8.84849Z" fill="white"/>
</svg>
