<svg xmlns="http://www.w3.org/2000/svg" width="18.86" height="18.86" viewBox="0 0 18.86 18.86">
  <path id="FB" d="M1471.372,10.126h-12.124a3.368,3.368,0,0,0-3.368,3.368V25.618a3.368,3.368,0,0,0,3.368,3.368h12.124a3.368,3.368,0,0,0,3.368-3.368V13.494A3.368,3.368,0,0,0,1471.372,10.126Zm-3.431,5.728H1466.7c-.439,0-.53.179-.53.633v1.1h1.772l-.171,1.925h-1.6v5.748h-2.3V19.532h-1.194V17.583h1.194V16.048c0-1.44.77-2.192,2.478-2.192h1.59Z" transform="translate(-1455.88 -10.126)" fill="#003663"/>
</svg>
