<?xml version="1.0" encoding="UTF-8"?>
<svg xmlns="http://www.w3.org/2000/svg" xmlns:xlink="http://www.w3.org/1999/xlink" width="17px" height="17px" viewBox="0 0 17 17" version="1.1">
<g id="surface1">
<path style=" stroke:none;fill-rule:evenodd;fill:rgb(11.764706%,63.921569%,38.039216%);fill-opacity:1;" d="M 0.144531 15.472656 L 0.144531 3.371094 C 0.148438 2.667969 0.714844 2.09375 1.421875 2.09375 L 13.515625 2.09375 Z M 0.144531 15.472656 "/>
<path style=" stroke:none;fill-rule:evenodd;fill:rgb(99.607843%,85.882353%,26.27451%);fill-opacity:1;" d="M 0.144531 15.722656 L 0.144531 15.472656 L 13.515625 2.09375 L 13.777344 2.09375 C 14.476562 2.09375 15.042969 2.671875 15.042969 3.371094 L 15.042969 3.625 L 1.675781 17 L 1.421875 17 C 0.714844 17 0.144531 16.433594 0.144531 15.722656 "/>
<path style=" stroke:none;fill-rule:evenodd;fill:rgb(32.54902%,51.764706%,76.862745%);fill-opacity:1;" d="M 1.675781 17 L 7.601562 11.078125 L 13.515625 17 Z M 1.675781 17 "/>
<path style=" stroke:none;fill-rule:evenodd;fill:rgb(100%,100%,100%);fill-opacity:1;" d="M 13.515625 17 L 7.597656 11.074219 L 9.125 9.546875 L 15.042969 15.472656 L 15.042969 15.722656 C 15.042969 16.433594 14.476562 17 13.777344 17 Z M 13.515625 17 "/>
<path style=" stroke:none;fill-rule:evenodd;fill:rgb(76.078431%,76.078431%,75.686275%);fill-opacity:1;" d="M 15.042969 15.472656 L 9.125 9.546875 L 15.042969 3.621094 Z M 15.042969 15.472656 "/>
<path style=" stroke:none;fill-rule:nonzero;fill:rgb(93.72549%,93.72549%,93.72549%);fill-opacity:1;" d="M 2.804688 3.75 C 3.558594 3.398438 4.507812 3.542969 5.125 4.105469 L 4.539062 4.6875 C 3.921875 4.085938 2.761719 4.371094 2.476562 5.179688 C 2.101562 5.976562 2.726562 7.019531 3.617188 7.03125 C 4.195312 7.097656 4.773438 6.710938 4.894531 6.136719 C 4.488281 6.136719 4.085938 6.132812 3.683594 6.136719 L 3.675781 5.386719 L 5.710938 5.414062 C 5.761719 5.90625 5.730469 6.433594 5.464844 6.871094 C 5.042969 7.648438 4.058594 7.988281 3.21875 7.792969 C 2.191406 7.574219 1.421875 6.515625 1.5625 5.46875 C 1.625 4.730469 2.125 4.050781 2.804688 3.75 "/>
<path style=" stroke:none;fill-rule:nonzero;fill:rgb(86.27451%,29.411765%,24.313725%);fill-opacity:1;" d="M 12.445312 0 L 12.925781 0 C 14.136719 0.0703125 15.3125 0.65625 16.046875 1.625 C 16.527344 2.242188 16.792969 3.003906 16.855469 3.773438 L 16.855469 4.0625 C 16.832031 5.558594 15.867188 6.792969 15.039062 7.953125 C 14.109375 9.269531 13.25 10.707031 13.007812 12.324219 C 12.941406 12.601562 13.019531 12.984375 12.691406 13.117188 C 12.613281 13.046875 12.519531 13 12.46875 12.914062 C 12.375 12.011719 12.152344 11.117188 11.761719 10.285156 C 11.320312 9.324219 10.710938 8.449219 10.085938 7.597656 C 9.710938 7.082031 9.351562 6.554688 9.0625 5.992188 C 8.597656 5.148438 8.421875 4.148438 8.609375 3.195312 C 8.765625 2.449219 9.15625 1.753906 9.703125 1.214844 C 10.433594 0.5 11.421875 0.0625 12.445312 0 M 12.351562 2.636719 C 11.78125 2.761719 11.296875 3.273438 11.25 3.859375 C 11.199219 4.421875 11.5 4.957031 12.003906 5.210938 C 12.558594 5.496094 13.230469 5.414062 13.695312 5.003906 C 14.117188 4.617188 14.257812 4.011719 14.046875 3.480469 C 13.785156 2.828125 13.023438 2.460938 12.351562 2.625 "/>
<path style=" stroke:none;fill-rule:nonzero;fill:rgb(50.196078%,17.254902%,15.294118%);fill-opacity:1;" d="M 12.351562 2.636719 C 13.023438 2.46875 13.785156 2.832031 14.046875 3.484375 C 14.257812 4.007812 14.109375 4.644531 13.695312 5.015625 C 13.230469 5.421875 12.558594 5.507812 12.003906 5.226562 C 11.515625 4.984375 11.1875 4.421875 11.25 3.875 C 11.300781 3.28125 11.78125 2.769531 12.351562 2.648438 "/>
</g>
</svg>
