<svg xmlns="http://www.w3.org/2000/svg" width="19.157" height="19.157" viewBox="0 0 19.157 19.157">
  <path id="IG" d="M1485.342,29.084a3.42,3.42,0,0,1-3.421-3.42V13.349a3.422,3.422,0,0,1,3.421-3.422h12.316a3.422,3.422,0,0,1,3.421,3.422V25.664a3.42,3.42,0,0,1-3.421,3.42Zm3.992-14.8a3.88,3.88,0,0,0-1.275.244,2.685,2.685,0,0,0-1.535,1.536,3.849,3.849,0,0,0-.245,1.274c-.025.561-.031.74-.031,2.166s.006,1.6.031,2.165a3.849,3.849,0,0,0,.245,1.274,2.685,2.685,0,0,0,1.535,1.536,3.857,3.857,0,0,0,1.275.244c.56.025.739.031,2.165.031s1.6-.006,2.165-.031a3.851,3.851,0,0,0,1.274-.244,2.683,2.683,0,0,0,1.536-1.536,3.851,3.851,0,0,0,.244-1.274c.025-.561.031-.739.031-2.165s-.006-1.606-.031-2.166a3.851,3.851,0,0,0-.244-1.274,2.683,2.683,0,0,0-1.536-1.536,3.874,3.874,0,0,0-1.274-.244c-.561-.025-.739-.032-2.165-.032S1489.894,14.26,1489.334,14.286Zm.043,9.5a2.909,2.909,0,0,1-.976-.181,1.744,1.744,0,0,1-1-1,2.93,2.93,0,0,1-.18-.975c-.025-.554-.031-.72-.031-2.122s.005-1.569.031-2.122a2.942,2.942,0,0,1,.18-.976,1.744,1.744,0,0,1,1-1,2.892,2.892,0,0,1,.976-.18c.553-.026.72-.032,2.122-.032s1.569.005,2.122.032a2.879,2.879,0,0,1,.975.18,1.744,1.744,0,0,1,1,1,2.91,2.91,0,0,1,.181.976c.025.553.031.72.031,2.122s-.005,1.568-.031,2.122a2.9,2.9,0,0,1-.181.975,1.744,1.744,0,0,1-1,1,2.9,2.9,0,0,1-.975.181c-.554.025-.72.031-2.122.031S1489.931,23.807,1489.378,23.782Zm-.575-4.275a2.7,2.7,0,1,0,2.7-2.7A2.7,2.7,0,0,0,1488.8,19.507Zm4.87-2.8a.63.63,0,1,0,.631-.631A.631.631,0,0,0,1493.672,16.7Zm-3.922,2.807a1.75,1.75,0,1,1,1.75,1.75A1.75,1.75,0,0,1,1489.75,19.51Z" transform="translate(-1481.921 -9.927)" fill="#003663"/>
</svg>
