<svg xmlns="http://www.w3.org/2000/svg" width="18.956" height="18.956" viewBox="0 0 18.956 18.956">
  <path id="IN" d="M1523.6,10.021h-12.186a3.385,3.385,0,0,0-3.385,3.385V25.592a3.385,3.385,0,0,0,3.385,3.385H1523.6a3.385,3.385,0,0,0,3.385-3.385V13.406A3.385,3.385,0,0,0,1523.6,10.021Zm-8.429,13.7h-1.962V17.386h1.962Zm-.99-7.167a1.169,1.169,0,1,1,1.16-1.17A1.165,1.165,0,0,1,1514.178,16.556Zm8.341,7.167h-1.952V20.4c0-.912-.347-1.422-1.068-1.422-.785,0-1.2.531-1.2,1.422v3.327h-1.882V17.386h1.882v.853a2.3,2.3,0,0,1,4.215,1.471Z" transform="translate(-1508.026 -10.021)" fill="#003663"/>
</svg>
