<svg width="493" height="493" viewBox="0 0 493 493" fill="none" xmlns="http://www.w3.org/2000/svg">
<path d="M480.719 422.656L376.482 318.419C398.019 285.959 410.625 247.094 410.625 205.312C410.625 92.1032 318.522 0 205.312 0C92.1032 0 0 92.1032 0 205.312C0 318.522 92.1032 410.625 205.312 410.625C247.094 410.625 285.959 398.019 318.419 376.482L422.656 480.719C438.671 496.754 464.704 496.754 480.719 480.719C496.754 464.684 496.754 438.691 480.719 422.656ZM61.5938 205.312C61.5938 126.062 126.062 61.5938 205.312 61.5938C284.563 61.5938 349.031 126.062 349.031 205.312C349.031 284.563 284.563 349.031 205.312 349.031C126.062 349.031 61.5938 284.563 61.5938 205.312Z" fill="white"/>
</svg>
