<svg xmlns="http://www.w3.org/2000/svg" width="13.06" height="18.055" viewBox="0 0 13.06 18.055">
  <path id="tel" d="M1303.38,21.246c-3.892-6.806-1.812-9.808-1.077-10.362l2.837,4.816c-.683.406-.355,1.321.051,2.216.006.041,1.972,3.371,1.989,3.381,1.017,1.386,1.567,2.023,2.22,1.635l2.765,4.7a2.047,2.047,0,0,1-1.022.216C1309.548,27.851,1306.522,26.742,1303.38,21.246Zm6.375,1.47,1.322-.787a.6.6,0,0,1,.826.213l2.16,3.664v0a.61.61,0,0,1-.211.836h0s-1.322.786-1.322.786Zm-7.088-12.049,1.323-.787a.6.6,0,0,1,.825.214s2.222,3.768,2.222,3.768v0a.608.608,0,0,1-.212.833v0l-1.322.784Z" transform="translate(-1301.087 -9.796)" fill="#003663"/>
</svg>
